/* XPM */
static char *icon_xpm[] = {
/* columns rows colors chars-per-pixel */
"32 32 5 1 ",
"  c black",
". c #FF0B0B",
"X c #F4F400",
"o c #0000DF",
"# c None",
/* pixels */
"################     ###########",
"############### XXXXX ##########",
"############## XXXXXXX #########",
"############## XXXXXXX #########",
"############## XXXXXXXX ########",
"############## XXXXXXXX ########",
"##                  XXXX #######",
"# oooooooooooooooooo XXX #######",
"# oooooooooooooooooo XXXX ######",
"# oooooooooooooooooo XXXX ######",
"# oooooooooooooooooo XXXX ######",
"# oooooooooooooooooo XXXXX #####",
"# oooooooooooooooooo XXXXX #####",
"# oooooooooooooooooo XXXXXX ####",
"# oooooooooooooo      XXXXX ####",
"# oooooooooooo  ......  XXXX ###",
"# ooooooooooo .......... XXX ###",
"# oooooooooo ............ XX ###",
"# ooooooooo .............. XX ##",
"# ooooooooo .............. XX ##",
"# oooooooo ............... XXX #",
"# oooooooo ................ XX #",
"# oooooooo ................ XXX ",
"# oooooooo ................ XXX ",
"# oooooooo ................ XXX ",
"##         ............... XXXX ",
"########### .............. XXXX ",
"########### .............. XXXX ",
"############ ............ XXXX #",
"############# ..........      ##",
"##############   ....   ########",
"#################    ###########"
};
