/* XPM */
static char *e9e8f4ae75f844b88b2a4b9d58b69780FEpoILMjSCFcMAy9[] = {
/* columns rows colors chars-per-pixel */
"32 32 247 2 ",
"   c None",
".  c #C99C00",
"X  c #CA9D00",
"o  c #CA9D01",
"O  c #CB9E01",
"+  c #CC9E02",
"@  c #CC9F02",
"#  c #CD9F02",
"$  c #CDA002",
"%  c #CDA003",
"&  c #CEA003",
"*  c #CEA103",
"=  c #CFA103",
"-  c #CFA104",
";  c #CFA204",
":  c #D0A204",
">  c #D1A304",
",  c #D1A305",
"<  c #D1A405",
"1  c #D2A405",
"2  c #D3A506",
"3  c #D4A606",
"4  c #D5A706",
"5  c #D4A607",
"6  c #D5A707",
"7  c #D7A707",
"8  c #D7A708",
"9  c #D6A808",
"0  c #D7A908",
"q  c #D8A909",
"w  c #D8AA09",
"e  c #D9AA09",
"r  c #DAAA08",
"t  c #D8AA0A",
"y  c #D8AB0A",
"u  c #D9AB0A",
"i  c #DAAB0A",
"p  c #DAAC0A",
"a  c #DAAD0A",
"s  c #DBAC0B",
"d  c #DBAD0B",
"f  c #DCAD0B",
"g  c #DCAE0B",
"h  c #DCAD0C",
"j  c #DCAE0C",
"k  c #DDAE0C",
"l  c #DDAF0C",
"z  c #DEAE0C",
"x  c #DEAF0C",
"c  c #DEAF0D",
"v  c #DFB00D",
"b  c #E0B10D",
"n  c #E1B00E",
"m  c #E0B10E",
"M  c #E1B10E",
"N  c #E1B20E",
"B  c #E1B30F",
"V  c #E2B30F",
"C  c #E3B30F",
"Z  c #E3B40F",
"A  c #E3B410",
"S  c #E4B410",
"D  c #E4B510",
"F  c #E5B510",
"G  c #E5B511",
"H  c #E5B611",
"J  c #E6B611",
"K  c #E6B711",
"L  c #E7B712",
"P  c #E8B812",
"I  c #E8B813",
"U  c #E9B913",
"Y  c #D0AF3D",
"T  c #DCBA45",
"R  c #EEBC59",
"E  c #E3996B",
"W  c #E39A6A",
"Q  c #E4996A",
"!  c #E59A6B",
"~  c #E29A6C",
"^  c #E4A076",
"/  c #E9A377",
"(  c #E9A479",
")  c #EAA67B",
"_  c #EAA67C",
"`  c #EAA87C",
"'  c #A2D66E",
"]  c #A2D66F",
"[  c #DFC25E",
"{  c #EEC94B",
"}  c #C0CF6A",
"|  c #D7C173",
" . c #D9C274",
".. c #D9C374",
"X. c #DAC375",
"o. c #DBC476",
"O. c #DBC576",
"+. c #DCC576",
"@. c #D9C47B",
"#. c #DAC57B",
"$. c #DDC678",
"%. c #DEC778",
"&. c #DBC67C",
"*. c #DBC67D",
"=. c #DCC77D",
"-. c #DDC87E",
";. c #DEC87E",
":. c #DEC97F",
">. c #EBCC63",
",. c #E0C979",
"<. c #E0C97A",
"1. c #E2CB7B",
"2. c #E3CB7C",
"3. c #E3CC7C",
"4. c #E4CD7D",
"5. c #E5CD7D",
"6. c #E5CE7D",
"7. c #E6CF7F",
"8. c #E7CF7F",
"9. c #F3C779",
"0. c #E7D07F",
"q. c #EED57E",
"w. c #EFD57E",
"e. c #EFD67E",
"r. c #F6D27F",
"t. c #F1D77C",
"y. c #F0D77F",
"u. c #F1D77F",
"i. c #79C0E7",
"p. c #B2BD8F",
"a. c #8CA7B5",
"s. c #E6AC87",
"d. c #EFB18B",
"f. c #E8B492",
"g. c #F1BA97",
"h. c #A4D682",
"j. c #A4D683",
"k. c #A2DF93",
"l. c #A1DF96",
"z. c #BCE3B6",
"x. c #BEE5B8",
"c. c #CFCD87",
"v. c #D5CD81",
"b. c #DFCA80",
"n. c #D8CC84",
"m. c #E0CA80",
"M. c #E0CB80",
"N. c #E0CB81",
"B. c #E1CC82",
"V. c #E2CC82",
"C. c #E5CF85",
"Z. c #E6D085",
"A. c #E7D287",
"S. c #E9D180",
"D. c #E9D281",
"F. c #EAD281",
"G. c #EBD482",
"H. c #EDD482",
"J. c #ECD483",
"K. c #E8D287",
"L. c #E9D387",
"P. c #EDD684",
"I. c #EED684",
"U. c #EED784",
"Y. c #EAD489",
"T. c #EBD589",
"R. c #ECD68A",
"E. c #EDD78B",
"W. c #EBD58C",
"Q. c #EED88C",
"!. c #F1D880",
"~. c #F2D981",
"^. c #F3D981",
"/. c #F3DA81",
"(. c #F0D886",
"). c #F1D986",
"_. c #F2DA87",
"`. c #F2DA88",
"'. c #F3DB88",
"]. c #F4DC89",
"[. c #F5DA97",
"{. c #F5DF99",
"}. c #ECC5AC",
"|. c #F6C5A7",
" X c #F7CDA9",
".X c #EAC7B2",
"XX c #ECC9B3",
"oX c #EDCFBE",
"OX c #F8CCB1",
"+X c #F9CFB4",
"@X c #F9CFB5",
"#X c #EEDFB4",
"$X c #EED1BF",
"%X c #E7E0A7",
"&X c #FBE2A3",
"*X c #FBE3A4",
"=X c #F5E5A9",
"-X c #FCE7A9",
";X c #FDE9A9",
":X c #FAE8AE",
">X c #8AB0C5",
",X c #92BED4",
"<X c #92BED5",
"1X c #B1BEC3",
"2X c #B9D4C2",
"3X c #8DC7E9",
"4X c #8DC8EA",
"5X c #8EC8EA",
"6X c #8EC9EA",
"7X c #8FCAEB",
"8X c #9CD0EA",
"9X c #9AD0EF",
"0X c #AFDAE5",
"qX c #AAD3EA",
"wX c #AADCF7",
"eX c #EDD3C2",
"rX c #EFDCCF",
"tX c #EFE1D8",
"yX c #F0E2D8",
"uX c #E7E7E7",
"iX c gray91",
"pX c #E9E9E9",
"aX c #EAEAEA",
"sX c gray92",
"dX c #ECECEC",
"fX c gray93",
"gX c #EEEEEE",
"hX c #EFEFEF",
"jX c #F2EDEA",
"kX c #F0EFEB",
"lX c #F4F0ED",
"zX c gray94",
"xX c #F1F1F1",
"cX c #F2F1F1",
"vX c gray95",
"bX c #F3F3F3",
"nX c #F4F4F4",
"mX c gray96",
"MX c #F6F6F6",
"NX c gray97",
"BX c #F8F8F8",
"VX c #F9F9F9",
"CX c gray98",
"ZX c #FBFBFB",
"AX c gray99",
"SX c #FDFDFD",
"DX c #FEFEFE",
/* pixels */
"      I I I U I I L L J J J C Z Z Z       C v C c v c c g       ",
"      I { /././.!.!.!.!.y.q.q.q.>.C C     C v v v c g c c       ",
"      I '.DXDXDXDXDXVXSXZXZXZXZXZXE.C c     v c g c g g g       ",
"      I '.DXDXDXVXSXDXDXZXZXZXZXZXZXE.v v     c c g g g i       ",
"      I _.DXAXAXSXVXVXVXVXVXVXVXNXNXNXT.c c     c d d d d       ",
"      P _.DXAXAXDXVXDXVXVXVXVXMXBXBXNXNXT.g c     d i i i       ",
"      J _.AXAXZXDXVXSXVXVXVXVXVXNXNXNXNXNXL.d c     d i i       ",
"      J U.AXZXZXVXVXVXVXVXVXVXMXNXNXNXNXNXnXL.d d     i i       ",
"      J _.ZXZXBXZXNXZXNXVXMXMXMXnXNXNXnXNXvXvXA.i 0             ",
"      J U.ZXZXZXNXZXNXNXVXMXVXMXNXNXnXNXvXNXvXNXA.i i           ",
"      A J.ZXZXZXZXBXBXNXMXMXMXMXvXNXnXnXnXvXvXvXvXC.9 7         ",
"      C J.ZXNXNXNXBXNXNXMXMXMXmXNXvXvXNXvXnXvXvXvXvXC.9 7       ",
"      C P.ZXNXNXNXNXNXNXNXNXmXmXvXNXvXvXvXvXvXgXvXgXvX[ 7       ",
"      C J.NXNXNXNXNXlX}.s.f.rXnXnXvXvXvXvXvXvXvXgXvXgX1.5       ",
"      v J.ZXNXNXNXXXQ g. X|._ ^ jXvXvXvXvXvXvXvXvXgXgX3.5       ",
"      C G.NXNXNX$X( +X+X@X@X@X|.E vXvXvXvXgXgXgXvXgXgX%.5       ",
"      v H.MXNXNX! @X@X@X+X+X+X1Xa.>X5X5X5X5X3XqXhXhXhX%.5       ",
"      v F.NXbXyX_ @X@X@X+X+X+X,XwXwXwXwXwXwXwX5XgXhXhX%.;       ",
"      c F.NXNXeXd.@X@X@X@Xj.h.,XwXwXwXwXwXwXwX7XgXfXfX%.5       ",
"      g F.nXbXtX_ @X@X+X+X} ' ,XwXwXwXwXwXwXwX5XdXfXdX%.;       ",
"      c 8.bXNXnX! OXOX@X9.&X&Xp.wXwXwXwXwXwXwX5XgXdXgX$.;       ",
"      d 8.nXnXvXeX/ +XOXr.;X;Xn.0XwXwXwXwXwXwX5XsXdXaX$.;       ",
"      d 8.nXnXvXbX.X! R -X;X;X=Xc.wXwXwXwXwXwX5XsXsXaX+.;       ",
"      i V.nXvXnXlXlX#X[.;X;X;X;X%X2XwXwXwXwXwX5XsXaXaX+.@       ",
"      i 7.vXvXvXvXjXt.;X;X;X;X;X;Xv.8X9X9X9X9Xi.aXaXaXX.O       ",
"      i 7.vXzXlXgXH.:X;X;X;X;X;X;X:XW.dXsXaXaXaXaXaXaX+.@       ",
"      0 3.vXzXzXk.' {.{.{.{.{.{.{.{.] l.sXaXaXaXaXaXuXX.O       ",
"      i 3.zXzXzXx.x.gXgXgXgXfXfXdXdXz.z.aXaXaXaXiXuXiX..O       ",
"      0 3.zXzXhXgXgXgXgXgXgXdXdXsXsXsXaXaXaXiXaXuXuXuXX.O       ",
"      0 3.zXhXhXgXgXgXgXdXdXdXaXsXaXaXaXaXaXuXiXuXuXuX| .       ",
"      7 T N.B.B.V.N.N.N.b.b.b.b.=.b.=.=.@.=.@.@.@.@.@.Y O       ",
"      5 8 5 5 5 : 7 : : : % : % # % # # @ O @ . O O . . .       "
};
